<svg width="1481" height="931" viewBox="0 0 1481 931" fill="none" xmlns="http://www.w3.org/2000/svg">
<path d="M48.8 850.7C34.8 850.7 20.8 850.7 6.8 850.7C2.3 850.7 0.1 848.5 0 843.9C0 836.7 0 829.4 0 822.2C0 817.7 2.3 815.5 6.8 815.5C34.3 815.5 61.8 815.5 89.3 815.5C96.8 815.5 102 809.9 101.4 802.6C100.9 796.6 95.5 792.1 88.5 792.1C74.5 792.1 60.5 792.1 46.5 792.1C20.5 792.1 -0.7 770.1 0.1 744C0.8 720.8 18.5 701.6 41.5 698.8C44.2 698.5 46.9 698.3 49.7 698.3C62.9 698.3 76.1 698.3 89.4 698.3C96.4 698.3 101.6 693.4 101.6 686.7C101.6 680.2 96.3 675 89.4 675C75.5 675 61.5 675 47.6 675C27.6 674.9 9.6 662.3 2.8 643.7C-7.2 616.4 10.9 586 39.8 581.7C42.4 581.3 45.1 581.1 47.8 581.1C75.1 581.1 102.5 581.1 129.8 581C133.6 581 137.1 583.1 136.9 588C136.7 595.3 136.8 602.6 136.8 609.9C136.8 614 134.6 616.2 130.4 616.2C102.9 616.2 75.4 616.2 47.9 616.2C41.8 616.2 37.1 619.6 35.7 624.9C33.8 632.4 39.3 639.4 47.4 639.6C50.9 639.7 54.4 639.6 57.9 639.6C68.7 639.6 79.5 639.6 90.3 639.6C113.5 639.6 133.5 657.2 136.4 680.3C139.6 705.1 122.9 727.9 98.3 732.4C94.8 733 91.1 733.4 87.5 733.4C74.1 733.5 60.7 733.4 47.3 733.4C40.5 733.4 35.3 738.3 35.3 744.8C35.3 751.4 40.5 756.6 47.4 756.6C61.6 756.6 75.9 756.6 90.1 756.6C113 756.6 132.9 773.7 136.3 796.3C140 820.4 124.7 843.2 100.8 848.9C96.9 849.8 92.7 850.3 88.7 850.4C75.3 850.8 62.1 850.7 48.8 850.7Z" fill="#E84060" fill-opacity="0.4"/>
<path d="M27.0088 38.8523C27.0088 27.7062 27.0088 16.56 27.0088 5.41384C27.0089 1.83115 28.7626 0.0796061 32.4295 -9.16062e-06C38.169 -8.90974e-06 43.9881 -8.65537e-06 49.7276 -8.40449e-06C53.3148 -8.24769e-06 55.0685 1.83115 55.0685 5.41384C55.0685 27.3081 55.0685 49.2023 55.0685 71.0966C55.0685 77.0677 59.5325 81.2077 65.3517 80.73C70.1346 80.3319 73.7218 76.0327 73.7218 70.4596C73.7218 59.3135 73.7218 48.1673 73.7218 37.0212C73.7218 16.3212 91.2591 -0.557314 112.065 0.0796097C130.559 0.636918 145.864 14.7288 148.096 33.0404C148.335 35.19 148.494 37.3396 148.494 39.5689C148.494 50.0781 148.494 60.5873 148.494 71.1762C148.494 76.7493 152.4 80.8893 157.741 80.8893C162.923 80.8893 167.068 76.6696 167.068 71.1762C167.068 60.1096 167.068 48.9635 167.068 37.8969C167.148 21.9738 177.192 7.64308 192.019 2.22923C213.781 -5.73231 238.014 8.67808 241.442 31.6869C241.761 33.7569 241.92 35.9066 241.92 38.0562C241.92 59.7912 241.92 81.6058 242 103.341C242 106.366 240.326 109.153 236.42 108.993C230.601 108.834 224.782 108.914 218.962 108.914C215.694 108.914 213.94 107.162 213.94 103.818C213.94 81.9243 213.94 60.03 213.94 38.1358C213.94 33.2792 211.23 29.5373 207.005 28.4227C201.027 26.91 195.446 31.2889 195.287 37.7377C195.207 40.5242 195.287 43.3108 195.287 46.0973C195.287 54.6958 195.287 63.2943 195.287 71.8927C195.287 90.3635 181.257 106.287 162.843 108.595C143.074 111.143 124.899 97.8473 121.312 78.2619C120.833 75.4754 120.514 72.5296 120.514 69.6635C120.435 58.995 120.514 48.3266 120.514 37.6581C120.514 32.2442 116.608 28.1042 111.427 28.1042C106.166 28.1042 102.021 32.2442 102.021 37.7377C102.021 49.0431 102.021 60.4281 102.021 71.7335C102.021 89.9654 88.3893 105.809 70.3738 108.516C51.1625 111.462 32.9875 99.2804 28.4437 80.2523C27.7263 77.1473 27.3277 73.8035 27.248 70.6189C26.9292 59.9504 27.0088 49.4412 27.0088 38.8523Z" fill="#E84060" fill-opacity="0.4"/>
<path d="M1420.67 297C1403.18 297 1385.7 297 1368.22 297C1346.41 297 1328.11 280.235 1326.22 258.513C1324.33 236.971 1339.2 217.322 1360.46 213.446C1363.71 212.815 1367.04 212.545 1370.29 212.545C1393 212.455 1415.71 212.545 1438.42 212.455C1445.72 212.455 1450.77 205.695 1448.69 198.845C1447.34 194.518 1443.11 191.454 1438.33 191.454C1420.49 191.454 1402.64 191.454 1384.8 191.454C1378.22 191.454 1371.64 191.634 1365.06 191.183C1346.86 190.011 1331.54 176.942 1327.21 159.276C1321.53 135.931 1336.4 112.497 1360.1 107.9C1363.26 107.269 1366.41 106.999 1369.66 106.999C1392.46 106.908 1415.17 106.999 1437.97 106.908C1443.83 106.908 1448.42 103.213 1449.15 97.895C1450.05 91.4054 1445.18 85.9974 1438.33 85.8171C1437.88 85.8171 1437.34 85.8171 1436.89 85.8171C1402.1 85.8171 1367.22 85.8171 1332.44 85.8171C1328.02 85.8171 1326.13 83.9243 1326.13 79.5078C1326.04 72.928 1326.04 66.4384 1326.04 60.0389C1326.04 56.1632 1328.11 54 1331.99 54C1367.85 54 1403.63 54 1439.5 54C1459.78 54 1477.8 70.1339 1480.6 90.2337C1483.84 114.119 1467.08 135.03 1443.47 138.185C1441.48 138.455 1439.41 138.545 1437.43 138.545C1414.63 138.545 1391.83 138.545 1369.03 138.545C1362.72 138.545 1357.85 143.142 1357.85 149.091C1357.85 154.95 1362.81 159.546 1368.94 159.546C1392.01 159.546 1415.08 159.546 1438.15 159.546C1447.52 159.546 1456.17 161.98 1463.56 167.749C1477.17 178.114 1483.12 192.085 1480.24 208.94C1477.26 226.155 1466.54 237.151 1450.05 242.289C1446.17 243.461 1441.94 244.001 1437.88 244.001C1414.9 244.182 1391.92 244.092 1368.94 244.092C1363.44 244.092 1359.02 247.427 1358.03 252.384C1356.68 258.874 1361.37 264.732 1368.13 265.183C1368.76 265.183 1369.39 265.183 1370.02 265.183C1404.99 265.183 1439.86 265.183 1474.83 265.183C1478.89 265.183 1480.87 267.166 1480.87 271.132C1480.87 277.711 1480.87 284.291 1480.87 290.871C1480.87 294.927 1478.8 296.91 1474.74 296.91C1456.81 297 1438.69 297 1420.67 297Z" fill="#E84060" fill-opacity="0.4"/>
<path d="M1170 887.015C1170 874.269 1170 861.523 1170 848.776C1170 832.876 1182.21 819.539 1198.03 818.159C1213.72 816.779 1228.04 827.62 1230.86 843.126C1231.32 845.491 1231.52 847.922 1231.52 850.287C1231.58 866.844 1231.52 883.401 1231.58 899.958C1231.58 905.28 1236.51 908.96 1241.5 907.448C1244.65 906.463 1246.88 903.375 1246.88 899.893C1246.88 886.884 1246.88 873.875 1246.88 860.866C1246.88 856.069 1246.75 851.273 1247.08 846.477C1247.93 833.205 1257.45 822.035 1270.32 818.882C1287.32 814.743 1304.39 825.583 1307.74 842.863C1308.2 845.163 1308.4 847.462 1308.4 849.828C1308.46 866.45 1308.4 883.007 1308.46 899.63C1308.46 903.9 1311.15 907.251 1315.03 907.777C1319.75 908.434 1323.69 904.886 1323.82 899.893C1323.82 899.564 1323.82 899.17 1323.82 898.841C1323.82 873.48 1323.82 848.054 1323.82 822.693C1323.82 819.473 1325.2 818.093 1328.42 818.093C1333.21 818.028 1337.94 818.028 1342.6 818.028C1345.42 818.028 1347 819.539 1347 822.364C1347 848.513 1347 874.597 1347 900.747C1347 915.53 1335.25 928.67 1320.61 930.707C1303.21 933.072 1287.98 920.852 1285.68 903.638C1285.48 902.192 1285.42 900.681 1285.42 899.236C1285.42 882.613 1285.42 865.99 1285.42 849.368C1285.42 844.768 1282.07 841.221 1277.74 841.221C1273.47 841.221 1270.12 844.834 1270.12 849.302C1270.12 866.122 1270.12 882.941 1270.12 899.761C1270.12 906.594 1268.35 912.902 1264.15 918.289C1256.6 928.21 1246.42 932.547 1234.14 930.444C1221.6 928.276 1213.59 920.457 1209.85 908.434C1209 905.609 1208.6 902.521 1208.6 899.564C1208.47 882.81 1208.54 866.056 1208.54 849.302C1208.54 845.294 1206.11 842.075 1202.5 841.352C1197.77 840.366 1193.5 843.783 1193.18 848.711C1193.18 849.171 1193.18 849.63 1193.18 850.09C1193.18 875.583 1193.18 901.01 1193.18 926.502C1193.18 929.459 1191.73 930.904 1188.84 930.904C1184.05 930.904 1179.26 930.904 1174.46 930.904C1171.51 930.904 1170.07 929.393 1170.07 926.436C1170 913.362 1170 900.155 1170 887.015Z" fill="#E84060" fill-opacity="0.4"/>
</svg>
